<svg viewBox="0 0 512 512" xmlns="http://www.w3.org/2000/svg">
  <defs>
    <!-- Degradado de Instagram -->
    <linearGradient
      id="instagram-gradient"
      x1="328.27"
      x2="183.73"
      y1="508.05"
      y2="3.95"
      gradientUnits="userSpaceOnUse"
    >
      <stop offset="0" stop-color="#ffdb73" />
      <stop offset=".08" stop-color="#fdad4e" />
      <stop offset=".15" stop-color="#fb832e" />
      <stop offset=".19" stop-color="#fa7321" />
      <stop offset=".23" stop-color="#f6692f" />
      <stop offset=".37" stop-color="#e84a5a" />
      <stop offset=".48" stop-color="#e03675" />
      <stop offset=".55" stop-color="#dd2f7f" />
      <stop offset=".68" stop-color="#b43d97" />
      <stop offset=".97" stop-color="#4d60d4" />
      <stop offset="1" stop-color="#4264db" />
    </linearGradient>

    <!-- Máscara para "perforar" las formas de la cámara en el rectángulo -->
    <mask id="instagram-mask" maskUnits="userSpaceOnUse">
      <!-- Fondo blanco = zona visible -->
      <rect x="0" y="0" width="512" height="512" fill="white" />
      
      <!-- Formas de la cámara en negro = se vuelven transparentes -->
      <path
        fill="black"
        d="M331 115.22a66.92 66.92 0 0 1 66.65 66.65v148.26A66.92 66.92 0 0 1 331 396.78H181a66.92 66.92 0 0 1-66.65-66.65V181.87A66.92 66.92 0 0 1 181 115.22h150m0-31H181c-53.71 0-97.66 44-97.66 97.66v148.25c0 53.71 44 97.66 97.66 97.66h150c53.71 0 97.66-44 97.66-97.66V181.87c0-53.71-43.95-97.66-97.66-97.66Z"
      />
      <path
        fill="black"
        d="M256 198.13A57.87 57.87 0 1 1 198.13 256 57.94 57.94 0 0 1 256 198.13m0-31A88.87 88.87 0 1 0 344.87 256 88.87 88.87 0 0 0 256 167.13Z"
      />
      <circle
        fill="black"
        cx="346.81"
        cy="163.23"
        r="21.07"
      />
    </mask>
  </defs>

  <!-- Rectángulo redondeado con el degradado, al que se aplica la máscara -->
  <rect
    x="23.47"
    y="23.47"
    width="465.06"
    height="465.06"
    rx="107.23"
    ry="107.23"
    fill="url(#instagram-gradient)"
    mask="url(#instagram-mask)"
  />
</svg>
