<svg viewBox="0 0 64 64" xmlns="http://www.w3.org/2000/svg">
  <defs>
    <!-- Definimos la máscara -->
    <mask id="linkedin-mask" maskUnits="userSpaceOnUse">
      <!-- Fondo en blanco (todo visible por defecto) -->
      <rect width="64" height="64" fill="white" />
      
      <!-- Formas que queremos "recortar" en negro -->
      <path
        fill="black"
        d="M8.99 23.54h9.03v32.72H8.99zM48.2 23.54C41.54 21 36.72 25.3 34.66 27.7v-4.16h-9v32.72h9V39a8.45 8.45 0 0 1 2.23-5.92 4.75 4.75 0 0 1 3.41-1.67A5.42 5.42 0 0 1 44.24 33a6.13 6.13 0 0 1 1.7 4.35v18.91H56.1V36s1.13-9.08-7.9-12.46Z"
      />
      <circle
        fill="black"
        cx="13.5"
        cy="13.38"
        r="5.64"
      />
    </mask>
  </defs>

  <!-- Aplicamos la máscara al rectángulo de fondo azul -->
  <rect
    x="0"
    y="0"
    width="64"
    height="64"
    rx="11.2"
    ry="11.2"
    fill="#007fb5"
    mask="url(#linkedin-mask)"
  />
</svg>
